<?xml version="1.0" encoding="UTF-8"?>
<svg version="1.1" viewBox="0 0 1225 1180" width="1280" height="1280" xmlns="http://www.w3.org/2000/svg">
<path transform="translate(611)" d="m0 0 6 1 23 11 22 12 29 16 25 14 56 32 24 14 26 15 58 34 28 17 29 17 26 16 15 10 13 14 2 55 28-15 22-12 4 1 11 12v43l-24 14-25 14-24 14-25 14-24 14-25 14-24 14-25 14-24 14-25 14-24 14-25 14-24 14-25 14-24 14-41 23-13 6-12 3h-9l-11-4-11-7-12-10-16-11-12-7-24-10-10-4-12-13-1-14-1-37-23 12-22 12-25 13-1 1-1 68 5 1 21 10 23 13 23 14 43 29 20 12 19 10 15 5 5 1h13l10-3 27-15 25-15 26-15 15-9 27-16 44-26 58-34 26-15 28-16 29-16 27-14 13-6h3l7 8 5 6v335h-731l-13-14-1-186-22 12-16 9-14 6-12-12-2-3v-40l11-11 18-13 22-14 28-17 26-15 23-13 25-14 27-15 29-16 24-14 27-15 24-14 27-15 24-14 27-15 24-14 27-15 19-11 9 3 29 14 19 10 19 12 16 12 12 12 7 8 7 9 1 49 16-7 17-9 21-14 13-11 6-8 1-63-4-2-18-12-24-15-24-14-28-16-27-15-26-14-25-13-5-1-23 11-24 13-24 14-26 15-28 17-29 17-28 17-32 19-25 15-22 13-26 15-25 14-27 14-16 7-9 2-13-14v-194l24-15 32-19 20-12 22-13 29-17 27-16 78-45 28-16 50-28 24-13 23-12z" fill="#1E6C82"/>
<path transform="translate(613,827)" d="m0 0h44l9 111 6-61 6-48 1-2h47l2 16 6 75 2 26 4-49 6-52 2-14 1-2h44l-2 22-17 147-1 6h-57l-2-7-7-43-5-37-12 87h-57l-2-11-18-155z" fill="#1E6C82"/>
<path transform="translate(391,827)" d="m0 0h52l23 2 12 4 8 6 6 8 3 9 1 9v105l-2 13-4 8-7 6-10 4-6 1h-76zm45 30v115h8l5-4 1-4v-101l-5-5z" fill="#1F6C82"/>
<path transform="translate(821,827)" d="m0 0h66l16 106 10 69h-47l-2-21v-10h-17v12l-2 19h-47l1-13 21-158zm34 42-6 45-2 19v7h15v-9l-6-62z" fill="#1E6C82"/>
<path transform="translate(978,433)" d="m0 0 5 5 8 9v335h-731l-12-13v-1h730z" fill="#FEFEFE"/>
<path transform="translate(136,824)" d="m0 0h26l15 4 11 6 7 8 3 7 2 17v14h-43l-1-22-2-3-5-1-4 2-2 5v13l3 8 11 8 19 12 11 9 6 5 6 10 3 9 1 7v31l-4 13-7 8-9 6-10 4-10 2h-20l-16-4-11-6-6-5-6-10-3-16v-25h42l1 28 2 6 1 1h10l2-6v-17l-3-9-9-8-22-15-12-9-7-8-5-12-2-15 1-19 3-11 6-9 7-6 11-5z" fill="#1E6C82"/>
<path transform="translate(521,827)" d="m0 0h76v35h-30v33h28v34h-28v38h33v35h-79z" fill="#1E6C82"/>
<path transform="translate(1045,251)" d="m0 0 13 13v43l-24 14-25 14-24 14-25 14-24 14-25 14-24 14-25 14-24 14-25 14-24 14-25 14-24 14-25 14-24 14-41 23-13 6-12 3h-9l-11-4-11-7-12-10-16-11-12-7-24-10-10-4-11-12 3-1 19 7 16 8 16 10 16 13 14 9 8 3h14l15-5 21-11 24-14 25-14 24-14 25-14 24-14 25-14 24-14 25-14 24-14 25-14 24-14 25-14 24-14 25-14 49-28h2z" fill="#FEFEFE"/>
<path transform="translate(905,827)" d="m0 0h42l5 25 6 39 8-44 4-19 1-1h41l-1 7-20 67-11 37-1 64h-42l-1-65-31-108z" fill="#1E6C82"/>
<path transform="translate(612,198)" d="m0 0 19 9 32 17 23 13 27 15 27 16 20 12 27 18 14 11 4 5v2l-4-2-18-12-24-15-24-14-28-16-27-15-26-14-25-13-5-1-23 11-24 13-24 14-26 15-28 17-29 17-28 17-32 19-25 15-22 13-26 15-25 14-27 14-16 7-9 2-13-14v-1l13-4 25-12 28-15 24-14 21-12 28-17 26-15 23-14 28-17 54-32 29-17 23-13 26-14z" fill="#FEFEFE"/>
<path transform="translate(226,827)" d="m0 0h45l1 1v139h27v35h-73z" fill="#216E83"/>
<path transform="translate(319,827)" d="m0 0h45v175h-46v-174z" fill="#226F84"/>
<path transform="translate(505,410)" d="m0 0 2 1v20l-16 9-23 12-33 18-1 67-5-1-8-3v-78l22-12 25-13 22-12z" fill="#FEFEFE"/>
<path transform="translate(1034,947)" d="m0 0h26l6 3 3 4v45l-4 5-2 1h-29zm16 9-1 1v38l2 1 3-2v-36z" fill="#1E6C82"/>
<path transform="translate(177,1100)" d="m0 0h12l2 7 5 28 1 3 6-34 1-4h12v61h-7l-1-42-7 42h-8l-2-9-5-32-1 41h-8z" fill="#1E6C82"/>
<path transform="translate(1117,947)" d="m0 0h15l2 13 2 22 3-34 1-1h15l-2 20-5 38h-23l-7-46z" fill="#1E6C82"/>
<path transform="translate(748,1100)" d="m0 0h42l9 22 5-11 4-11h10l-8 20-6 14-1 27h-8l-1-27-13-31-1 6h-12v52h-8l-1-51-11-1z" fill="#1E6C82"/>
<path transform="translate(584,1099)" d="m0 0h11l5 3 5 6 3 7 1 5v21l-3 10 1 4 4 3-3 9-4-2-6-4-3 1h-11l-6-4-5-7-3-13v-15l3-12 4-7 5-4zm4 10-6 4-3 7-1 6v8l2 10 4 6 4 2 5-1-3-3h-2l2-6 5 2 3 2 3-8v-15l-3-9-4-4z" fill="#1E6C82"/>
<path transform="translate(1059,1108)" d="m0 0h25l6 5 2 6v12l-4 8-5 4 5 7 7 17v2h-10l-11-24-6-1-1 25h-8zm9 9-1 1v15l1 1h9l5-2 2-3v-7l-5-5z" fill="#1E6C82"/>
<path transform="translate(92,1100)" d="m0 0h25l5 4 3 8v10l-3 7-6 6 6 10 6 16h-10l-10-22-4-3-4-1v26h-8zm8 9v17h10l5-2 2-5-1-7-5-3z" fill="#1E6C82"/>
<path transform="translate(145,1099)" d="m0 0h12l7 5 5 10 2 11v11l-3 14-6 9-5 3h-12l-7-5-5-10-2-12v-9l2-12 5-10zm5 10-6 3-3 5-1 4v19l4 8 3 3 5 1 6-3 3-5 1-4v-20l-4-8-6-3z" fill="#1E6C82"/>
<path transform="translate(246,561)" d="m0 0h1v20l-23 13-16 9-14 6-12-12-1-3 15-7 27-15 16-8z" fill="#FEFEFE"/>
<path transform="translate(1082,947)" d="m0 0h26v11l-10 1v10l9 1v10l-9 1v12l11 1v11h-27z" fill="#1E6C82"/>
<path transform="translate(1138,1108)" d="m0 0h22l6 4 4 7 2 8v23l-3 10-5 7-4 2h-22zm9 9-1 1v41l1 1h8l6-3 3-9v-19l-3-8-3-3-4-1z" fill="#1E6C82"/>
<path transform="translate(853,1108)" d="m0 0h22l7 6 4 11 1 7v14l-3 13-4 6-3 3-3 1h-21zm8 9v43h9l5-3 3-6v-24l-3-7-7-3z" fill="#1E6C82"/>
<path transform="translate(386,1099)" d="m0 0h8l1 26 16-26h11l-7 12-7 11 1 5 14 33v1h-11l-10-26v-2l-3 3-4 6-1 19h-8z" fill="#1E6C82"/>
<path transform="translate(326,1099)" d="m0 0h11l7 6 2 5 1 8h-9l-3-7-5-1-5 3v5l6 4 12 6 4 7 1 4v8l-3 9-5 5-2 1h-12l-6-4-4-8-1-9 1-1h7l3 9 4 2 6-1 3-5-1-6-5-3-12-6-4-7-1-9 3-10 5-4z" fill="#1E6C82"/>
<path transform="translate(249,1099)" d="m0 0h12l6 5 3 7v7h-8l-3-7-6-1-4 1v9l6 2 12 6 4 7v16l-3 6-4 4-3 1h-11l-6-4-4-7-1-4v-7h7l5 10 6 1 4-2 1-2v-8l-10-5-7-4-4-6-1-4v-8l3-8z" fill="#1E6C82"/>
<path transform="translate(427,1099)" d="m0 0h30v10h-22v14h21v10h-21v18h23v10h-31z" fill="#1E6C82"/>
<path transform="translate(616,1100)" d="m0 0h8l1 44 3 7 6 1 4-2 1-3 1-47h9v32l-1 18-4 8-5 4h-13l-7-6-2-5-1-7z" fill="#1E6C82"/>
<path transform="translate(1100,1108)" d="m0 0h30v9l-21 1v13l20 1v9l-20 1v17l22 1v9h-31z" fill="#1E6C82"/>
<path transform="translate(669,1100)" d="m0 0h9l13 48 3 13h-9l-4-13h-15l-4 13h-8l1-8 13-50zm4 15-5 19v4h11l-2-11-3-12z" fill="#1E6C82"/>
<path transform="translate(1021,1108)" d="m0 0h30v9h-22v15h20v9h-20v19h23v9h-31z" fill="#1E6C82"/>
<path transform="translate(894,1108)" d="m0 0h30v9h-22v15h20v9h-20v19h23v9h-31z" fill="#1E6C82"/>
<path transform="translate(279,1100)" d="m0 0h30v9h-22v15h20v9h-20v19h23v9h-31z" fill="#1E6C82"/>
<path transform="translate(466,1099)" d="m0 0h20l5 2 4 5 2 7v11l-3 8-5 5-3 1h-12v23h-8zm8 10v19h10l4-4 1-8-3-6-2-1z" fill="#1E6C82"/>
<path transform="translate(53,1100)" d="m0 0h23l4 2 4 8 1 5-1 13-5 8-3 2-14 1-1 22h-8zm9 9-1 1v18l1 1h7l5-2 2-3v-10l-3-4-4-1z" fill="#1E6C82"/>
<path transform="translate(1187,1101)" d="m0 0 5 2 16 10 17 11v14l-10 7-20 13-6 4h-2v-15l9-6 15-9v-2l-23-13-1-1z" fill="#1E6C82"/>
<path transform="translate(36,1101)" d="m0 0h2v15l-9 6-16 9 25 15v16l-5-2-18-12-14-9v-15l27-18z" fill="#1E6C82"/>
<path transform="translate(979,1108)" d="m0 0h9l9 41 1 1 9-41 1-1h8l-2 11-11 47-1 3h-9l-2-6-12-52z" fill="#1E6C82"/>
<path transform="translate(978,210)" d="m0 0 13 13 1 32v24l-10 6h-3l-1-44z" fill="#FEFEFE"/>
<path transform="translate(717,365)" d="m0 0 7 6 6 8v50l-7 3-6 1z" fill="#FEFEFE"/>
<path transform="translate(502,1099)" d="m0 0h32v10h-12v52h-8v-52h-12z" fill="#1E6C82"/>
<path transform="translate(932,1108)" d="m0 0h8l1 51 20 1v9h-29z" fill="#1E6C82"/>
<path transform="translate(699,1100)" d="m0 0h8l1 51 19 1v9h-28z" fill="#1E6C82"/>
<path transform="translate(967,1108)" d="m0 0h8v61h-8z" fill="#1E6C82"/>
<path transform="translate(733,1100)" d="m0 0h8v61h-8z" fill="#1E6C82"/>
<path transform="translate(225,1100)" d="m0 0h8v61h-8z" fill="#1E6C82"/>
<path transform="translate(534,1170)" d="m0 0h32v8h-32z" fill="#1E6C82"/>
<path transform="translate(350,1171)" d="m0 0h33v7h-33z" fill="#1E6C82"/>
<path transform="translate(818,1171)" d="m0 0h32v7h-32z" fill="#1E6C82"/>
</svg>
